# xmcd CD database file
#
# Track frame offsets:
#	150
#	14649
#	26669
#	39645
#	51718
#	64281
#	77851
#	91809
#	105814
#	119660
#	130836
#	146126
#	160546
#	173979
#	188726
#
# Disc length: 2669 seconds
#
# Revision: 0
# Processed by: cddbd v1.5.2PL0 Copyright (c) Steve Scherf et al.
# Submitted via: CDex 1.51
#
DISCID=d10a6b0f
DTITLE=Ella Fritzgerald - The Greatest Ladies Of Jazz
DYEAR=2006
DGENRE=Jazz
TTITLE0=It;s Wonderful
TTITLE1=A four leaf clover in your pocket
TTITLE2=After I say I'm sorry
TTITLE3=Alll over nothing at all
TTITLE4=Can't help lovin' dat man
TTITLE5=Cow-Cow Boogie
TTITLE6=Coochi-coochi-coo
TTITLE7=Baby what else can I do
TTITLE8=Don't You think I ought to know
TTITLE9=Flying home
TTITLE10=He's my guy
TTITLE11=Five o'clock whistle
TTITLE12=I got it bad and that ain't good
TTITLE13=Deep in the heart of the South
TTITLE14=Easter parade
EXTD=YEAR: 2006
EXTT0=
EXTT1=
EXTT2=
EXTT3=
EXTT4=
EXTT5=
EXTT6=
EXTT7=
EXTT8=
EXTT9=
EXTT10=
EXTT11=
EXTT12=
EXTT13=
EXTT14=
PLAYORDER=
